Coordinates
version=1
nRows=21
nColumns=22
inDegrees=yes

Units are S.I. units (second, meters, Newtons, ...)
If the header above contains a line with 'inDegrees', this indicates whether rotational values are in degrees (yes) or radians (no).

endheader
time	pelvis_tilt	pelvis_list	pelvis_rotation	pelvis_tx	pelvis_ty	pelvis_tz	hip_flexion_r	hip_adduction_r	hip_rotation_r	knee_angle_r	ankle_angle_r	subtalar_angle_r	hip_flexion_l	hip_adduction_l	hip_rotation_l	knee_angle_l	ankle_angle_l	subtalar_angle_l	lumbar_extension	lumbar_bending	lumbar_rotation
      1.18000000	     -4.44372593	     -3.38197721	     -5.05709612	      1.06461353	      0.94137559	     -0.25210213	     15.13800620	      5.97589830	      0.15579137	    -22.21471641	      9.18630366	     -4.95197131	     15.58651061	     -8.19544444	     -8.50827010	    -25.94757441	     10.01487086	     -1.02641210	     -6.95184005	      1.05538191	      2.32974809
      1.19000000	     -4.57006571	     -3.25087179	     -4.82465751	      1.06179540	      0.94118598	     -0.25099226	     15.59011257	      5.90348843	     -0.07692225	    -22.41631794	      9.07705385	     -5.02046849	     16.10519732	     -8.12219650	     -8.17940959	    -26.12463542	      9.72476382	     -0.86380816	     -7.15826304	      0.93344694	      2.28303894
      1.20000000	     -4.70964679	     -3.10472561	     -4.53599980	      1.05885949	      0.94098138	     -0.24995580	     16.05663091	      5.79988121	     -0.34800982	    -22.60592890	      8.97185753	     -5.09075479	     16.66368406	     -8.01532866	     -7.78508012	    -26.31153378	      9.45179789	     -0.66849627	     -7.36570132	      0.79976048	      2.19474468
      1.21000000	     -4.86711781	     -2.95408923	     -4.19939974	      1.05583043	      0.94075267	     -0.24898023	     16.53968546	      5.67661510	     -0.65141015	    -22.78144976	      8.84965215	     -5.17327442	     17.25982736	     -7.88718422	     -7.32585025	    -26.51554538	      9.20609916	     -0.41724109	     -7.56259063	      0.66413600	      2.08116287
      1.22000000	     -5.01465737	     -2.79098920	     -3.80342136	      1.05274688	      0.94053034	     -0.24809753	     17.00436668	      5.51925088	     -0.98480806	    -22.94220721	      8.74329026	     -5.25951240	     17.85624077	     -7.71779727	     -6.78726250	    -26.73932349	      9.01820973	     -0.12456031	     -7.77424734	      0.51808897	      1.89928765
      1.23000000	     -5.13308462	     -2.62464456	     -3.35573658	      1.04965291	      0.94033652	     -0.24730199	     17.42392347	      5.33302607	     -1.36663532	    -23.08407816	      8.67695712	     -5.33951521	     18.42599512	     -7.52034593	     -6.19333088	    -27.00266942	      8.89459678	      0.18315473	     -8.01570842	      0.37009629	      1.66032213
      1.24000000	     -5.26168354	     -2.47908579	     -2.89216224	      1.04652186	      0.94010515	     -0.24656609	     17.84391022	      5.15881272	     -1.74280611	    -23.21105923	      8.58321856	     -5.43129930	     19.00952027	     -7.32938334	     -5.55926193	    -27.33791390	      8.88255496	      0.56998893	     -8.23822379	      0.25431726	      1.41796033
      1.25000000	     -5.38627320	     -2.34606071	     -2.43121714	      1.04339504	      0.93986156	     -0.24585568	     18.23880119	      4.99207877	     -2.09633733	    -23.30623672	      8.46163062	     -5.53531540	     19.57505738	     -7.14330049	     -4.91753494	    -27.75718783	      9.02027021	      1.05459217	     -8.44797958	      0.15320621	      1.18310757
      1.26000000	     -5.46750623	     -2.23638943	     -1.96953092	      1.04029420	      0.93965227	     -0.24517898	     18.57308120	      4.83578853	     -2.46963566	    -23.38649538	      8.36600143	     -5.61429467	     20.07955562	     -6.97772616	     -4.30076562	    -28.28624121	      9.25751210	      1.52294241	     -8.68684050	      0.07886568	      0.93356657
      1.27000000	     -5.50661392	     -2.15727350	     -1.52439095	      1.03722460	      0.93947970	     -0.24453020	     18.84601195	      4.70092973	     -2.85476880	    -23.44663838	      8.29100399	     -5.65973648	     20.51727895	     -6.84765896	     -3.73499733	    -28.94598127	      9.57013400	      1.92268235	     -8.94850198	      0.04279213	      0.69085791
      1.28000000	     -5.54703150	     -2.11159428	     -1.13478293	      1.03417355	      0.93927090	     -0.24381558	     19.10726869	      4.61249983	     -3.19088486	    -23.48490556	      8.17833045	     -5.68246633	     20.92798845	     -6.78125966	     -3.27573440	    -29.76386342	     10.05014676	      2.36447267	     -9.17442382	      0.03741668	      0.49610864
      1.29000000	     -5.56492143	     -2.08573093	     -0.83087371	      1.03116362	      0.93906816	     -0.24299244	     19.33950868	      4.56059863	     -3.47989597	    -23.51490608	      8.04864385	     -5.66662760	     21.26722902	     -6.78247309	     -2.98349604	    -30.74015322	     10.62855983	      2.79433582	     -9.38644450	      0.04179767	      0.36130121
      1.30000000	     -5.55117037	     -2.11135075	     -0.57621827	      1.02819021	      0.93888759	     -0.24212303	     19.52184354	      4.56846156	     -3.74610626	    -23.51849259	      7.91677638	     -5.60636789	     21.53140481	     -6.87051754	     -2.80159384	    -31.88079133	     11.21471990	      3.03879314	     -9.59611655	      0.10219972	      0.26498222
      1.31000000	     -5.51755569	     -2.17637016	     -0.40532154	      1.02522883	      0.93871727	     -0.24111549	     19.67378782	      4.64365580	     -3.93878256	    -23.50070034	      7.76385743	     -5.51761436	     21.71228412	     -7.04756356	     -2.74989294	    -33.16745838	     11.81031034	      3.12260119	     -9.79246500	      0.18710531	      0.23601530
      1.32000000	     -5.48135766	     -2.25715992	     -0.31317832	      1.02230723	      0.93852890	     -0.24002442	     19.82487611	      4.74671730	     -4.10552221	    -23.48494094	      7.59073793	     -5.39029731	     21.82125262	     -7.29238134	     -2.84985604	    -34.58890094	     12.36775942	      3.13125835	     -9.94586784	      0.28206327	      0.24725882
      1.33000000	     -5.44071356	     -2.36544861	     -0.28957997	      1.01940122	      0.93832650	     -0.23883926	     19.97068077	      4.89386452	     -4.23897056	    -23.46362200	      7.40060228	     -5.23067434	     21.84852927	     -7.60854323	     -3.05179807	    -36.11480067	     12.85438279	      3.03823672	    -10.06306023	      0.39609225	      0.29781403
      1.34000000	     -5.40358176	     -2.49929159	     -0.32444528	      1.01649829	      0.93809576	     -0.23757585	     20.12266999	      5.08309773	     -4.33544678	    -23.44179651	      7.19099901	     -5.03268983	     21.79703157	     -7.98151065	     -3.31430476	    -37.71710094	     13.23752485	      2.85401879	    -10.13928852	      0.52605196	      0.37280811
      1.35000000	     -5.36754993	     -2.64929417	     -0.41038108	      1.01359717	      0.93784402	     -0.23626717	     20.27658505	      5.30178956	     -4.39796075	    -23.41905361	      6.97160177	     -4.82223825	     21.65261808	     -8.38555891	     -3.60341621	    -39.34953248	     13.50549240	      2.59579069	    -10.18084883	      0.66531674	      0.47002898
      1.36000000	     -5.33912335	     -2.80815216	     -0.52680418	      1.01067135	      0.93755843	     -0.23495475	     20.44666243	      5.53789950	     -4.43431947	    -23.40520068	      6.74163939	     -4.58952596	     21.42425098	     -8.79474955	     -3.88336921	    -40.97833073	     13.63919575	      2.29069447	    -10.18644921	      0.80982212	      0.56227387
      1.37000000	     -5.33089737	     -2.95196210	     -0.65569833	      1.00772215	      0.93722042	     -0.23372399	     20.65698960	      5.74827748	     -4.49634717	    -23.42281668	      6.53247364	     -4.23757634	     21.12236267	     -9.15934296	     -4.12815257	    -42.55885698	     13.60964100	      1.88331865	    -10.14270190	      0.94342648	      0.62941330
      1.38000000	     -5.30048550	     -3.10843318	     -0.79575284	      1.00475221	      0.93690223	     -0.23252877	     20.83361689	      5.98607667	     -4.49995717	    -23.42111933	      6.30628134	     -4.08636271	     20.70175265	     -9.50394180	     -4.31179892	    -44.06226333	     13.53142887	      1.69756680	    -10.10679762	      1.08925465	      0.68567897
